PathFileType	4	(X/Y/Z)	C:\My Captures\DataSMARTClinic\0004~001 ID\0004~aa~STRATO_01\Standing_STRATO_ID_01.trc
DataRate	CameraRate	NumFrames	NumMarkers	Units	OrigDataRate	OrigDataStartFrame	OrigNumFrames
250.00	250.00	6	22	mm	250.00	337	2711
Frame#	Time	r.should			l.should			c7			r.asis			l.asis			sacrum			r.bar1			l.bar1			r.knee1			l.knee1			r.bar2			r.mall			l.bar2			l.mall			r.met			r.heel			l.heel			l.met			r.mallm			l.mallm			r.kneem			l.kneem			
		X1	Y1	Z1	X2	Y2	Z2	X3	Y3	Z3	X4	Y4	Z4	X5	Y5	Z5	X6	Y6	Z6	X7	Y7	Z7	X8	Y8	Z8	X9	Y9	Z9	X10	Y10	Z10	X11	Y11	Z11	X12	Y12	Z12	X13	Y13	Z13	X14	Y14	Z14	X15	Y15	Z15	X16	Y16	Z16	X17	Y17	Z17	X18	Y18	Z18	X19	Y19	Z19	X20	Y20	Z20	X21	Y21	Z21	X22	Y22	Z22	

336	1.344000	882.056594	1283.017397	339.362055	842.976332	1280.962467	35.664134	774.689555	1346.066952	188.548714	934.578061	873.216927	345.180988	953.915238	873.777092	75.867921	740.309536	900.278330	193.747550	864.547908	786.279440	392.427921	894.592643	773.679018	16.169576	838.545084	438.360542	355.652869	848.627746	434.626400	37.344515	819.105625	377.924263	360.567123	810.124934	79.286903	332.363755	840.424538	367.457211	31.843033	818.730056	75.917959	48.918650	933.910787	43.846060	313.255757	750.262737	43.684203	291.710138	751.392543	42.637575	83.465703	944.933176	41.269548	83.333701	812.131524	76.031759	252.440810	822.322369	81.875421	126.030877	824.384511	410.515666	228.479937	839.406490	406.241447	163.892388	
337	1.348000	882.036567	1283.018589	339.364499	842.968583	1280.964255	35.659712	774.690390	1346.072078	188.554287	934.565902	873.231053	345.169753	953.904867	873.782992	75.863227	740.294099	900.285482	193.739891	864.555061	786.270976	392.429918	894.586742	773.686886	16.167372	838.561594	438.361764	355.651885	848.633170	434.622228	37.345186	819.098473	377.923816	360.568672	810.127676	79.288922	332.356334	840.427637	367.476463	31.825911	818.731606	75.923041	48.924856	933.895946	43.843359	313.256085	750.275731	43.656461	291.687369	750.399470	42.853422	82.895324	944.933414	41.275259	83.338581	812.138796	76.027021	252.445579	822.322249	81.877813	126.025885	824.367344	410.504758	228.475705	839.389741	406.248480	163.885012	
338	1.352000	882.026732	1283.018231	339.361846	842.945576	1280.966759	35.652015	774.675131	1346.095800	188.558444	934.526145	873.237133	345.160544	953.891397	873.787105	75.853914	740.279794	900.296986	193.736434	864.565194	786.264181	392.425418	894.594848	773.683667	16.155098	838.550687	438.359439	355.656624	848.630309	434.624314	37.348948	819.094658	377.924472	360.559613	810.133219	79.299457	332.363546	840.420723	367.471784	31.835184	818.718195	75.938284	48.919171	933.890164	43.853879	313.257426	750.294924	43.651596	291.678905	749.141455	43.106031	82.158238	944.922030	41.269008	83.337352	812.132299	76.022327	252.449602	822.334111	81.890419	126.025468	824.358463	410.499215	228.474766	839.374185	406.247824	163.883865	
339	1.356000	882.014871	1283.017159	339.363456	842.932880	1280.970454	35.647396	774.624109	1346.105337	188.553929	934.520066	873.217762	345.168710	953.868389	873.787105	75.855479	740.261257	900.308907	193.732575	864.549875	786.256552	392.410278	894.599974	773.704410	16.177192	838.516355	438.356280	355.651200	848.631382	434.623063	37.341245	819.088936	377.925575	360.560596	810.125947	79.309084	332.382232	840.427458	367.453575	31.843930	818.715096	75.943336	48.919819	933.900774	43.855794	313.256681	750.264347	43.663319	291.695535	749.858797	42.959444	82.531169	944.912910	41.257128	83.331242	812.126160	76.021008	252.445251	822.351813	81.899732	126.021490	824.370921	410.502315	228.476882	839.354277	406.254411	163.884923	
340	1.360000	881.998658	1283.016443	339.377522	842.921674	1280.970216	35.647720	774.626255	1346.118808	188.555866	934.519053	873.223722	345.158100	953.841150	873.790562	75.851500	740.255117	900.309563	193.732604	864.517570	786.250591	392.401218	894.578993	773.694158	16.149325	838.510513	438.363254	355.651408	848.624587	434.625387	37.341241	819.095492	377.921939	360.567003	810.121536	79.311952	332.388908	840.426803	367.455781	31.835608	818.704247	75.948030	48.918385	933.899105	43.855216	313.264489	750.256062	43.676153	291.699290	749.064088	43.135464	82.058832	944.919825	41.258983	83.335660	812.123954	76.019913	252.444267	822.387218	81.919990	126.013413	824.353933	410.502493	228.474498	839.341283	406.250417	163.885042	
341	1.364000	881.972313	1283.011675	339.378446	842.888594	1280.964375	35.649855	774.623990	1346.138239	188.561320	934.521139	873.239636	345.156193	953.826666	873.791814	75.835668	740.263879	900.309920	193.728670	864.497781	786.248922	392.404914	894.558430	773.688793	16.156312	838.507175	438.359618	355.660737	848.612964	434.626192	37.339401	819.108725	377.920300	360.569477	810.128689	79.295665	332.378209	840.409935	367.473900	31.829350	818.693995	75.958654	48.923902	933.888793	43.853302	313.268840	750.330746	43.634772	291.680336	750.808418	42.778958	83.118379	944.921672	41.263502	83.344758	812.128782	76.025128	252.447546	822.409272	81.924222	126.004919	824.351370	410.509169	228.473067	839.348316	406.250358	163.884327	
